# xmcd
#
# Track frame offsets:
#	182
#	18747
#	37312
#	55952
#
# Disc length: 932 seconds
#
# Revision: 2
# Processed by: cddbd v1.5.2PL0 Copyright (c) Steve Scherf et al.
# Submitted via: dBpowerAMP V4.0
#
DISCID=3603a204
DTITLE=Scratchband - She's A Miracle
DYEAR=1995
DGENRE=
TTITLE0=She's A Miracle
TTITLE1=Easy Love
TTITLE2=Sweet Music
TTITLE3=World Gets Out 
EXTD=
EXTT0=
EXTT1=
EXTT2=
EXTT3=
PLAYORDER=
